<svg width="160" height="157" xmlns="http://www.w3.org/2000/svg" fill="rgba(0, 0, 0, 0.04)">
 <g id="Layer_1">
  <title>Layer 1</title>
  <g>
   <g>
    <g>
     <path d="m499.9738,-240.20997c-10.7,5.3 -33.1,15.5 -56.8,20.5c-7.6,1.6 -13.5,7.5 -14.8,15.2c-1.1,6.2 -1.7,14 -0.6,22c1.2,8.9 8.6,15.6 17.6,16.1c13.7,0.8 36.5,4.8 55.2,21.6c5.7,5.1 14.1,6.1 20.9,2.6c8.3,-4.2 19,-11.2 27.7,-22.4c5,-6.5 5.5,-15.5 0.8,-22.2c-4.4,-6.3 -9.3,-15.9 -10.3,-28.7c-0.4,-4.5 -2.2,-8.7 -5.4,-11.8c-4.1,-4.1 -10.3,-9.4 -17.6,-13c-5.3,-2.5 -11.5,-2.5 -16.7,0.1z" />
     <path d="m521.0738,-166.10997c27.7,-10.8 1.9,-42.2 13.1,-61c-4.1,-4.1 -10.3,-9.4 -17.6,-13c-5.2,-2.6 -11.4,-2.6 -16.6,0c-10.7,5.3 -33.1,15.5 -56.8,20.5c-1.8,0.4 -3.5,1 -5,1.8l0,0c0,0 22.8,-4.7 37.6,20.5c14.6,25.1 17.6,41.9 45.3,31.2z" />
     <g>
      <circle r="11.7" cy="-189.60997" cx="513.2738" />
      <circle r="7.8" cy="-189.60997" cx="513.2738" />
     </g>
     <path d="m549.1738,-164.50997c2.5,-3.2 3.8,-7 4,-10.8c-8,7.9 -22,20.7 -32.1,25.2c-14.9,6.7 -26.6,-12.1 -56.1,-20.8c-14.2,-4.2 -24.9,-3.2 -32.1,-1.1c3.2,3.3 7.6,5.4 12.5,5.6c13.7,0.8 36.5,4.8 55.2,21.6c5.7,5.1 14.1,6.1 20.9,2.6c8.3,-4.1 19,-11.1 27.7,-22.3z" />
    </g>
    <g>
     <path d="m144.5738,-218.70997c0,0 -6,-3.4 -9.4,-12.7s-18.1,-10.7 -26.8,-3.4c-8.7,7.4 -49.6,8.7 -66.4,16.1c-16.8,7.4 -47.5,10.1 -46.5,28.8s16.4,21.5 19,15.4c2.7,-6 35,5.4 44,12.1c9,6.7 36.5,24.1 59.3,18.8s10.1,-21.5 12.7,-29.5c2.8,-8.1 23.5,-32.9 14.1,-45.6z" />
     <path d="m102.5738,-212.50997c-17.8,-9.1 -48.2,-3.5 -70.4,-2.6c-16.7,5.2 -37.4,9.8 -36.6,25.3c0.9,18.8 16.4,21.5 19,15.4c0,0 -5.8,-9.1 11.5,-16.6s22.7,14.6 50.2,21.3s53.4,-29 26.3,-42.8z" />
     <g>
      <circle r="11.7" cy="-191.10997" cx="90.8738" />
      <circle r="7.8" cy="-191.10997" cx="90.8738" />
     </g>
     <path d="m130.5738,-166.40997c-0.4,-2.5 -0.6,-4.8 0,-6.7c2.7,-8 23.5,-32.8 14.1,-45.6c0,0 -6,-3.4 -9.4,-12.7c-2.1,-5.8 -8.5,-8.5 -15.2,-8c18.9,3.4 8.1,27.7 3.1,36.5c-13.4,23.5 7.4,36.5 7.4,36.5l0,0z" />
    </g>
    <g>
     <path d="m445.7738,151.79003c0,0 -21.7,-33 -0.7,-87.4c21,-54.4 67.6,-85.6 77.8,-80.4s-4,38.1 14.7,56.7c18.7,18.6 13.7,14.9 0.8,48.1c-12.9,33.3 -10.7,53.8 -41.8,61.7s-40.3,14.9 -50.8,1.3z" />
     <path d="m514.6738,19.49003c-17.1,20 -61.9,34.3 -52,72.6c9.9,38.3 38,49.2 48.4,18.7c10.3,-30.5 24.4,-64.8 33.2,-63.4c-1.7,-1.9 -3.9,-4.1 -6.6,-6.7c-12.8,-12.7 -10.2,-32.1 -10.6,-44.8c-0.6,5 -3.3,12.9 -12.4,23.6z" />
     <g>
      <circle r="11.7" cy="84.29003" cx="489.5738" />
      <circle r="7.8" cy="84.29003" cx="489.5738" />
     </g>
    </g>
    <g>
     <path d="m716.7738,125.39003c0,0 24.1,-16.1 29.5,-44.9c5.4,-28.8 -3.4,-49.6 -10.7,-51.6c-7.4,-2 -22.1,6 -27.5,3.4c-5.4,-2.7 -8.9,-14.3 -27.7,-14.3c-18.8,0 -30.6,27.4 -36.7,29.9c-6,2.5 -27.8,-7.9 -29.7,0c-1.6,6.9 3.9,52.4 33.4,66.9c5.8,2.9 12.9,0.5 15.8,-5.3c2.5,-5 7.3,-10.2 16.2,-10.2c17.3,-0.2 -2.8,41.5 37.4,26.1z" />
     <g>
      <path d="m708.0738,32.19003c-5.4,-2.7 -8.9,-14.3 -27.7,-14.3s-30.6,27.4 -36.7,29.9c-1.3,0.5 -3.2,0.5 -5.6,0.2c2.5,0.4 11.9,2.7 22,13.6c11.7,12.7 17.8,24.6 34.8,19.9c25,-6.9 -1.6,-39.2 17.2,-48c0.7,-0.3 1.3,-0.7 1.9,-1c-2.4,0.3 -4.5,0.4 -5.9,-0.3z" />
      <path d="m637.4738,47.89003l0,0c0,0 0.1,0 0,0c0,0 0,0 0,0z" />
     </g>
     <g>
      <circle r="11.7" cy="56.59003" cx="687.1738" />
      <circle r="7.8" cy="56.59003" cx="687.1738" />
     </g>
     <path d="m741.3738,34.09003c0.8,16.9 0.3,45.8 -11.4,59.6c-17.1,20.1 -27.9,30.3 -33.2,17.9c-5.3,-12.5 -11.2,-27.2 -28.7,-8.4c2.7,-2.3 6.4,-4 11.4,-4c17.3,0 -2.9,41.6 37.4,26.2c0,0 24.1,-16.1 29.5,-44.9c3.9,-21.3 0.1,-38.2 -5,-46.4z" />
    </g>
    <g>
     <path d="m151.8738,29.79003c0,0 -7.7,-22.1 -28.6,-24.5c-20.9,-2.4 -57.1,9.7 -82.9,3.8c-25.9,-5.9 -41.2,9 -37,61.2s5.8,73.4 37.7,78.9s84.7,-16.5 102.7,-43.4s12.6,-67.4 8.1,-76z" />
     <path d="m62.6738,101.79003c44.6,3.5 47.1,-43.9 52,-62c2.3,-8.6 -2.6,-22.3 -8.4,-34.2c-20.4,2 -46.2,8 -66,3.5c-1.8,-0.4 -3.6,-0.7 -5.3,-0.9c2.8,7.1 4.2,17.1 1.7,30.9c-6.8,36.8 -18.6,59.3 26,62.7z" />
     <g>
      <circle r="11.7" cy="66.19003" cx="60.4738" />
      <circle r="7.8" cy="66.19003" cx="60.4738" />
     </g>
     <path d="m3.2738,70.39003c4.1,52.1 5.8,73.4 37.7,78.9c21.8,3.8 53.4,-5.4 76.9,-20.1c0,0 -62.3,15.2 -86.5,-2.7c-20.8,-15.3 -26.5,-82.9 -16.3,-113.4c-9.7,8 -14.3,25.9 -11.8,57.3z" />
    </g>
    <g>
     <path d="m626.2738,-210.50997c0,0 3.4,-18.8 28.8,-25.5s71.1,-6.7 77.1,9.4s8.6,77.1 -17.5,83.8c-26.1,6.7 -32.1,-29.5 -41.5,-36.9c-9.3,-7.3 -54.3,-0.6 -46.9,-30.8z" />
     <g>
      <circle r="11.7" cy="-202.80997" cx="702.9738" />
      <circle r="7.8" cy="-202.80997" cx="702.9738" />
     </g>
     <path d="m734.2738,-172.70997c-10.1,17.8 -25.8,21.5 -31.3,6.4c-7.4,-20.1 -18.7,-27.5 -48.2,-28.8c-14.5,-0.6 -23.6,-4.4 -29.3,-8.1c1.3,21.7 39.2,16.8 47.7,23.5c9.4,7.4 15.4,43.6 41.5,36.9c11,-2.8 16.9,-15.2 19.6,-29.9z" />
    </g>
    <g>
     <path d="m340.8738,-192.60997c0,0 -23.5,-12.2 -34.9,-34.3s-30.2,-38.8 -52.3,-34.1c-22.1,4.7 -33.5,44.5 -19.4,44.5c14.1,0 12.1,12.2 12.1,12.2s-28.1,24.5 -23.8,47.1c4.3,22.7 32.4,42.9 58.9,34.9c26.5,-7.8 96.9,-47 59.4,-70.3z" />
     <path d="m294.6738,-153.80997c41.2,-16.8 -4.3,-43.6 -19.5,-53.6c-15.2,-10.1 -36.8,-8.6 -36.8,-8.6l0,0c9.6,2.1 8,11.8 8,11.8s-9.3,8.1 -16.3,19.2l0,0c11.9,-0.3 23.4,47.9 64.6,31.2z" />
     <g>
      <circle r="11.7" cy="-175.30997" cx="286.8738" />
      <circle r="7.8" cy="-175.30997" cx="286.8738" />
     </g>
     <path d="m340.8738,-192.60997c0,0 -11,-5.7 -21.5,-16.4c0,0 9.2,14.2 16.6,21.9c7.4,7.7 12.4,17.5 -24.4,41.9c-36.9,24.4 -76.5,16.1 -88,-8.4c6.4,21.1 32.9,38.9 58,31.3c26.4,-7.8 96.8,-47 59.3,-70.3z" />
    </g>
    <g>
     <path d="m358.2738,21.49003c0,0 -6.8,-7.4 -22.8,-6.7c-16,0.7 -33.1,-9 -41.5,-21.5c-12.5,-18.5 -73.1,-6.7 -61.7,33.5s-12.7,57 -16.1,92.5c-3.4,35.5 59.7,59 74.4,28.2s26.9,-67.7 52.6,-79.8c25.8,-12 33.9,-24.7 15.1,-46.2z" />
     <path d="m276.3738,47.99003c-27.9,0 -38.6,-1.2 -43.6,-19.2c10.1,38.9 -13.3,55.7 -16.6,90.6c-0.3,2.9 -0.1,5.6 0.4,8.3c3.7,-2.9 9.4,-6 18.4,-8.7c24.6,-7.4 42.4,-9.4 57.3,-26.8s12.9,-44.2 -15.9,-44.2z" />
     <g>
      <circle r="11.7" cy="70.09003" cx="281.3738" />
      <circle r="7.8" cy="70.09003" cx="281.3738" />
     </g>
     <path d="m296.6738,28.79003c-0.2,11.8 23.5,24.1 43.5,-13.9c-1.5,-0.1 -3,-0.1 -4.7,-0.1c-16,0.7 -33.1,-9 -41.5,-21.5c-0.1,0.1 2.9,23.7 2.7,35.5z" />
     <path d="m343.1738,67.79003c23.9,-11.2 32.5,-22.9 18.8,-41.6c1.2,8.2 1.1,17.6 -3.9,23.1c-10.1,11.4 -30.2,6.8 -45.6,32.6c-15.4,25.8 -24.8,57.9 -42.9,65c-10,3.9 -26.4,3.5 -39.2,2.3c18.7,15.3 50.2,19 60.1,-1.6c14.8,-30.9 26.9,-67.8 52.7,-79.8z" />
    </g>
   </g>
  </g>
 </g>

</svg>